<?xml version="1.0" encoding="iso-8859-1"?>
<!-- Generator: Adobe Illustrator 19.0.0, SVG Export Plug-In . SVG Version: 6.00 Build 0)  -->
<svg version="1.1" id="Layer_1" xmlns="http://www.w3.org/2000/svg" xmlns:xlink="http://www.w3.org/1999/xlink" x="0px" y="0px"
	 viewBox="0 0 512 512" style="enable-background:new 0 0 512 512;" xml:space="preserve">
<path style="fill:#FFA733;" d="M488.727,170.663h-46.545h-22.325h-33.018h-33.018h-97.818h-99.157h-32.951h-32.95H69.818H23.273
	C10.422,170.663,0,181.084,0,193.936c0,12.853,10.422,23.273,23.273,23.273h27.466l42.803,213.946
	c2.175,10.875,11.725,18.703,22.812,18.708l139.649,0.057l139.63,0.057h0.009c11.093,0,20.646-7.83,22.824-18.711l42.797-214.058
	h27.463c12.851,0,23.273-10.42,23.273-23.273C512,181.084,501.578,170.663,488.727,170.663z"/>
<path style="fill:#806749;" d="M156.846,170.663l69.046-68.892c9.1-9.079,9.115-23.816,0.036-32.914
	c-9.076-9.098-23.813-9.115-32.912-0.037L90.945,170.664h32.948h32.953V170.663z"/>
<path style="fill:#A78966;" d="M419.857,170.663L318.948,70.39c-9.118-9.059-23.855-9.014-32.912,0.104
	c-9.061,9.117-9.013,23.851,0.102,32.912l67.682,67.257h33.018H419.857z"/>
<path style="fill:#FF7956;" d="M156.846,170.663h-32.951h-32.95H69.818H23.273C10.422,170.663,0,181.084,0,193.936
	c0,12.853,10.422,23.273,23.273,23.273h27.466l42.803,213.946c2.175,10.875,11.725,18.703,22.812,18.708l139.649,0.057V170.663
	H156.846z"/>
<g>
</g>
<g>
</g>
<g>
</g>
<g>
</g>
<g>
</g>
<g>
</g>
<g>
</g>
<g>
</g>
<g>
</g>
<g>
</g>
<g>
</g>
<g>
</g>
<g>
</g>
<g>
</g>
<g>
</g>
</svg>
