<?xml version="1.0" encoding="iso-8859-1"?>
<!-- Generator: Adobe Illustrator 19.0.0, SVG Export Plug-In . SVG Version: 6.00 Build 0)  -->
<svg version="1.1" id="Layer_1" xmlns="http://www.w3.org/2000/svg" xmlns:xlink="http://www.w3.org/1999/xlink" x="0px" y="0px"
	 viewBox="0 0 511.994 511.994" style="enable-background:new 0 0 511.994 511.994;" xml:space="preserve">
<path style="fill:#81E5EE;" d="M80.936,304.256c3.154,7.498,10.495,12.373,18.629,12.373h250.751v40.42h20.211
	c11.162,0,20.211,9.049,20.211,20.211v-80.841V175.155V74.104h-20.211c-11.162,0-20.211-9.049-20.211-20.211v33.683H20.21
	c-6.769,0-13.09,3.391-16.835,9.029c-3.744,5.64-4.418,12.778-1.793,19.019L80.936,304.256z"/>
<g>
	<path style="fill:#8CB7E8;" d="M370.526,74.104h20.211h33.684c11.162,0,20.211-9.049,20.211-20.211
		c0-11.16-9.049-20.211-20.211-20.211h-53.895c-11.162,0-20.211,9.05-20.211,20.211C350.315,65.055,359.364,74.104,370.526,74.104z"
		/>
	<path style="fill:#8CB7E8;" d="M370.526,357.048h-20.211h-47.158H142.82H61.978c-11.162,0-20.211,9.049-20.211,20.211
		s9.049,20.211,20.211,20.211h23.687h22.155h35.001h35.001h22.155h46.026h22.155h35.001h35.001h22.155h10.213
		c11.162,0,20.211-9.049,20.211-20.211C390.736,366.096,381.687,357.048,370.526,357.048z"/>
</g>
<path style="fill:#898890;" d="M122.61,417.68c0,11.143,9.065,20.211,20.211,20.211c11.144,0,20.211-9.068,20.211-20.211
	c0-11.144-9.066-20.211-20.211-20.211C131.675,397.469,122.61,406.536,122.61,417.68z"/>
<path style="fill:#57565C;" d="M142.82,397.469c11.144,0,20.211,9.066,20.211,20.211c0,11.143-9.066,20.211-20.211,20.211
	c-11.145,0-20.211-9.068-20.211-20.211C122.61,406.536,131.675,397.469,142.82,397.469H107.82H85.665
	c-2.243,6.326-3.476,13.126-3.476,20.211c0,33.432,27.198,60.632,60.632,60.632s60.632-27.199,60.632-60.632
	c0-7.084-1.233-13.885-3.476-20.211h-22.155H142.82z"/>
<path style="fill:#BDFDFF;" d="M370.526,74.104c-11.162,0-20.211-9.049-20.211-20.211v33.683h-128v229.053h128v40.42h20.211
	c11.162,0,20.211,9.049,20.211,20.211v-80.841V175.155V74.104H370.526z"/>
<path style="fill:#FFFFFF;" d="M122.61,417.678c0,11.144,9.066,20.211,20.211,20.211c11.144,0,20.211-9.066,20.211-20.211
	s-9.066-20.211-20.211-20.211C131.676,397.468,122.61,406.536,122.61,417.678z"/>
<path id="SVGCleanerId_0" style="fill:#830018;" d="M309.894,336.838c0,11.162,9.049,20.211,20.211,20.211h40.421h40.421
	c11.162,0,20.211-9.049,20.211-20.211s-9.049-20.211-20.211-20.211h-40.421h-40.421
	C318.943,316.627,309.894,325.676,309.894,336.838z"/>
<path id="SVGCleanerId_1" style="fill:#FF0C38;" d="M330.105,357.048c-11.162,0-20.211-9.049-20.211-20.211
	s9.049-20.211,20.211-20.211h40.421V195.364c-1.722,0-3.437,0.032-5.144,0.094c-5.094,0.186-10.12,0.645-15.066,1.357
	c-1.195,0.171-2.382,0.369-3.566,0.571c-0.357,0.061-0.715,0.115-1.073,0.178c-1.082,0.193-2.156,0.407-3.23,0.624
	c-0.476,0.096-0.951,0.189-1.426,0.29c-1.027,0.218-2.048,0.451-3.063,0.693c-0.511,0.12-1.019,0.243-1.525,0.368
	c-0.998,0.248-1.994,0.507-2.986,0.775c-0.505,0.139-1.011,0.282-1.513,0.424c-0.992,0.282-1.982,0.567-2.966,0.87
	c-0.469,0.144-0.934,0.299-1.403,0.447c-1.013,0.323-2.028,0.649-3.032,0.994c-0.314,0.109-0.624,0.226-0.936,0.337
	c-3.468,1.222-6.872,2.58-10.21,4.06c-0.458,0.202-0.919,0.399-1.374,0.606c-0.861,0.392-1.711,0.802-2.56,1.21
	c-0.55,0.264-1.101,0.527-1.648,0.798c-0.806,0.4-1.603,0.812-2.4,1.227c-0.582,0.303-1.16,0.608-1.737,0.918
	c-0.768,0.414-1.532,0.834-2.289,1.261c-0.593,0.334-1.184,0.675-1.772,1.016c-0.734,0.427-1.467,0.857-2.194,1.296
	c-0.605,0.366-1.206,0.745-1.805,1.121c-0.701,0.439-1.4,0.874-2.092,1.324c-0.631,0.411-1.25,0.837-1.874,1.257
	c-0.648,0.437-1.302,0.866-1.942,1.314c-1.199,0.838-2.385,1.692-3.556,2.565c-0.536,0.399-1.06,0.815-1.59,1.222
	c-0.697,0.534-1.395,1.066-2.079,1.613c-0.555,0.442-1.098,0.896-1.646,1.346c-0.649,0.534-1.299,1.068-1.939,1.614
	c-0.539,0.459-1.073,0.928-1.605,1.396c-0.636,0.558-1.267,1.118-1.892,1.688c-0.516,0.47-1.029,0.946-1.54,1.423
	c-0.629,0.591-1.253,1.188-1.873,1.791c-0.485,0.472-0.971,0.946-1.45,1.424c-0.643,0.643-1.273,1.293-1.902,1.947
	c-0.438,0.455-0.88,0.908-1.314,1.37c-0.703,0.752-1.393,1.516-2.08,2.282c-0.341,0.379-0.687,0.752-1.024,1.133
	c-1.012,1.152-2.008,2.32-2.983,3.506c-0.16,0.195-0.314,0.397-0.474,0.593c-0.815,1.004-1.622,2.016-2.412,3.041
	c-0.326,0.423-0.64,0.854-0.961,1.281c-0.61,0.814-1.219,1.629-1.814,2.455c-0.35,0.488-0.693,0.981-1.037,1.473
	c-0.547,0.784-1.091,1.571-1.624,2.366c-0.345,0.516-0.686,1.035-1.024,1.555c-0.517,0.794-1.027,1.594-1.528,2.4
	c-0.325,0.524-0.651,1.048-0.97,1.576c-0.504,0.833-0.994,1.672-1.482,2.516c-0.294,0.508-0.59,1.015-0.876,1.527
	c-0.521,0.927-1.024,1.865-1.521,2.803c-0.234,0.439-0.474,0.873-0.702,1.316c-0.717,1.382-1.416,2.777-2.087,4.188
	c-3.087,6.482-5.691,13.234-7.776,20.211c-0.507,1.692-0.978,3.399-1.42,5.117c-1.273,4.933-2.286,9.969-3.023,15.093
	c-0.949,6.603-1.45,13.35-1.45,20.211c0,6.861,0.501,13.607,1.45,20.209l0,0c1.537,10.694,4.271,21.004,8.064,30.79
	c0.004,0.009,0.008,0.02,0.012,0.031c0.627,1.615,1.283,3.217,1.967,4.802c0.015,0.036,0.031,0.073,0.046,0.108
	c0.683,1.579,1.392,3.142,2.129,4.69l0,0c22.746,47.756,71.482,80.843,127.805,80.843V357.046h-40.416V357.048z"/>
<g>
	<path style="fill:#B4002B;" d="M341.02,198.478c-1.027,0.218-2.047,0.451-3.063,0.693
		C338.973,198.929,339.994,198.696,341.02,198.478z"/>
	<path style="fill:#B4002B;" d="M286.144,223.36c-0.536,0.399-1.06,0.815-1.59,1.222C285.084,224.175,285.606,223.76,286.144,223.36
		z"/>
	<path style="fill:#B4002B;" d="M291.641,219.481c-0.648,0.437-1.302,0.866-1.942,1.314
		C290.34,220.347,290.992,219.917,291.641,219.481z"/>
	<path style="fill:#B4002B;" d="M278.89,229.155c-0.539,0.459-1.073,0.928-1.605,1.396
		C277.817,230.083,278.351,229.615,278.89,229.155z"/>
	<path style="fill:#B4002B;" d="M275.393,232.239c-0.516,0.47-1.029,0.946-1.54,1.423
		C274.365,233.183,274.879,232.709,275.393,232.239z"/>
	<path style="fill:#B4002B;" d="M282.475,226.195c-0.555,0.442-1.098,0.896-1.646,1.346
		C281.377,227.092,281.92,226.636,282.475,226.195z"/>
	<path style="fill:#B4002B;" d="M295.607,216.9c-0.701,0.439-1.4,0.874-2.092,1.324C294.207,217.773,294.907,217.338,295.607,216.9z
		"/>
	<path style="fill:#B4002B;" d="M345.675,197.563c-1.082,0.193-2.156,0.406-3.23,0.624
		C343.519,197.97,344.594,197.757,345.675,197.563z"/>
	<path style="fill:#B4002B;" d="M327.565,202.055c-1.013,0.325-2.028,0.649-3.032,0.994
		C325.537,202.704,326.552,202.38,327.565,202.055z"/>
	<path style="fill:#B4002B;" d="M268.63,238.823c-0.438,0.455-0.88,0.908-1.314,1.37C267.75,239.732,268.192,239.279,268.63,238.823
		z"/>
	<path style="fill:#B4002B;" d="M336.432,199.538c-0.998,0.248-1.994,0.507-2.986,0.775
		C334.439,200.043,335.433,199.786,336.432,199.538z"/>
	<path style="fill:#B4002B;" d="M323.597,203.388c-3.468,1.223-6.872,2.579-10.21,4.06
		C316.725,205.966,320.129,204.61,323.597,203.388z"/>
	<path style="fill:#B4002B;" d="M303.668,212.205c-0.768,0.414-1.532,0.834-2.289,1.261
		C302.136,213.039,302.898,212.618,303.668,212.205z"/>
	<path style="fill:#B4002B;" d="M299.606,214.482c-0.734,0.427-1.467,0.857-2.194,1.296
		C298.138,215.339,298.871,214.91,299.606,214.482z"/>
	<path style="fill:#B4002B;" d="M312.012,208.054c-0.861,0.392-1.711,0.802-2.56,1.21
		C310.302,208.855,311.151,208.446,312.012,208.054z"/>
	<path style="fill:#B4002B;" d="M307.804,210.061c-0.806,0.4-1.603,0.812-2.4,1.227
		C306.201,210.872,306.999,210.461,307.804,210.061z"/>
	<path style="fill:#B4002B;" d="M255.569,254.488c-0.35,0.488-0.693,0.981-1.037,1.473
		C254.878,255.469,255.221,254.974,255.569,254.488z"/>
	<path style="fill:#B4002B;" d="M250.358,262.281c-0.325,0.524-0.651,1.048-0.97,1.576
		C249.707,263.329,250.033,262.805,250.358,262.281z"/>
	<path style="fill:#B4002B;" d="M252.91,258.327c-0.345,0.516-0.686,1.035-1.024,1.555
		C252.224,259.361,252.565,258.843,252.91,258.327z"/>
	<path style="fill:#B4002B;" d="M247.907,266.373c-0.294,0.508-0.59,1.015-0.876,1.527
		C247.317,267.388,247.613,266.881,247.907,266.373z"/>
	<path style="fill:#B4002B;" d="M270.532,236.876c0.478-0.478,0.965-0.953,1.45-1.424
		C271.497,235.924,271.01,236.397,270.532,236.876z"/>
	<path style="fill:#B4002B;" d="M245.51,270.702c-0.234,0.439-0.474,0.873-0.702,1.316
		C245.034,271.577,245.276,271.141,245.51,270.702z"/>
	<path style="fill:#B4002B;" d="M265.236,242.476c-0.341,0.379-0.687,0.752-1.024,1.133
		C264.55,243.228,264.895,242.855,265.236,242.476z"/>
	<path style="fill:#B4002B;" d="M331.933,200.737c-0.992,0.283-1.982,0.567-2.966,0.87
		C329.952,201.305,330.941,201.019,331.933,200.737z"/>
	<path style="fill:#B4002B;" d="M261.23,247.115c-0.16,0.195-0.314,0.397-0.474,0.593
		C260.914,247.513,261.068,247.31,261.23,247.115z"/>
	<path style="fill:#B4002B;" d="M258.344,250.75c-0.326,0.423-0.64,0.854-0.961,1.281
		C257.704,251.605,258.018,251.173,258.344,250.75z"/>
	<path style="fill:#B4002B;" d="M350.315,196.815v-0.003c-1.195,0.172-2.382,0.372-3.566,0.574
		C347.933,197.184,349.12,196.986,350.315,196.815z"/>
	<path style="fill:#B4002B;" d="M365.38,195.458c-5.094,0.183-10.121,0.644-15.066,1.354v0.003
		C355.261,196.104,360.286,195.644,365.38,195.458z"/>
	<path style="fill:#B4002B;" d="M233.525,301.534c0.442-1.718,0.914-3.425,1.42-5.117
		C234.439,298.109,233.967,299.816,233.525,301.534z"/>
	<path style="fill:#B4002B;" d="M238.578,387.867c0.627,1.616,1.283,3.218,1.967,4.802
		C239.861,391.084,239.204,389.482,238.578,387.867z"/>
	<path style="fill:#B4002B;" d="M240.591,392.778c0.683,1.579,1.392,3.142,2.129,4.69l0,0
		C241.984,395.92,241.274,394.357,240.591,392.778z"/>
	<path style="fill:#B4002B;" d="M230.502,357.047L230.502,357.047c1.536,10.694,4.268,21.003,8.064,30.79
		C234.773,378.051,232.039,367.741,230.502,357.047z"/>
</g>
<path style="fill:#D7143A;" d="M390.736,196.815L390.736,196.815c-1.201-0.172-2.41-0.314-3.622-0.455
	C388.326,196.501,389.536,196.643,390.736,196.815z"/>
<path style="fill:#FFFFFF;" d="M122.61,417.678c0,11.144,9.066,20.211,20.211,20.211c11.144,0,20.211-9.066,20.211-20.211
	s-9.066-20.211-20.211-20.211C131.676,397.468,122.61,406.536,122.61,417.678z"/>
<g>
	<path style="fill:#B4002B;" d="M341.02,198.478c-1.027,0.218-2.047,0.451-3.063,0.693
		C338.973,198.929,339.994,198.696,341.02,198.478z"/>
	<path style="fill:#B4002B;" d="M286.144,223.36c-0.536,0.399-1.06,0.815-1.59,1.222C285.084,224.175,285.606,223.76,286.144,223.36
		z"/>
	<path style="fill:#B4002B;" d="M291.641,219.481c-0.648,0.437-1.302,0.866-1.942,1.314
		C290.34,220.347,290.992,219.917,291.641,219.481z"/>
	<path style="fill:#B4002B;" d="M278.89,229.155c-0.539,0.459-1.073,0.928-1.605,1.396
		C277.817,230.083,278.351,229.615,278.89,229.155z"/>
	<path style="fill:#B4002B;" d="M275.393,232.239c-0.516,0.47-1.029,0.946-1.54,1.423
		C274.365,233.183,274.879,232.709,275.393,232.239z"/>
	<path style="fill:#B4002B;" d="M282.475,226.195c-0.555,0.442-1.098,0.896-1.646,1.346
		C281.377,227.092,281.92,226.636,282.475,226.195z"/>
	<path style="fill:#B4002B;" d="M295.607,216.9c-0.701,0.439-1.4,0.874-2.092,1.324C294.207,217.773,294.907,217.338,295.607,216.9z
		"/>
	<path style="fill:#B4002B;" d="M345.675,197.563c-1.082,0.193-2.156,0.406-3.23,0.624
		C343.519,197.97,344.594,197.757,345.675,197.563z"/>
	<path style="fill:#B4002B;" d="M327.565,202.055c-1.013,0.325-2.028,0.649-3.032,0.994
		C325.537,202.704,326.552,202.38,327.565,202.055z"/>
	<path style="fill:#B4002B;" d="M268.63,238.823c-0.438,0.455-0.88,0.908-1.314,1.37C267.75,239.732,268.192,239.279,268.63,238.823
		z"/>
	<path style="fill:#B4002B;" d="M336.432,199.538c-0.998,0.248-1.994,0.507-2.986,0.775
		C334.439,200.043,335.433,199.786,336.432,199.538z"/>
	<path style="fill:#B4002B;" d="M323.597,203.388c-3.468,1.223-6.872,2.579-10.21,4.06
		C316.725,205.966,320.129,204.61,323.597,203.388z"/>
	<path style="fill:#B4002B;" d="M303.668,212.205c-0.768,0.414-1.532,0.834-2.289,1.261
		C302.136,213.039,302.898,212.618,303.668,212.205z"/>
	<path style="fill:#B4002B;" d="M299.606,214.482c-0.734,0.427-1.467,0.857-2.194,1.296
		C298.138,215.339,298.871,214.91,299.606,214.482z"/>
	<path style="fill:#B4002B;" d="M312.012,208.054c-0.861,0.392-1.711,0.802-2.56,1.21
		C310.302,208.855,311.151,208.446,312.012,208.054z"/>
	<path style="fill:#B4002B;" d="M307.804,210.061c-0.806,0.4-1.603,0.812-2.4,1.227
		C306.201,210.872,306.999,210.461,307.804,210.061z"/>
	<path style="fill:#B4002B;" d="M255.569,254.488c-0.35,0.488-0.693,0.981-1.037,1.473
		C254.878,255.469,255.221,254.974,255.569,254.488z"/>
	<path style="fill:#B4002B;" d="M250.358,262.281c-0.325,0.524-0.651,1.048-0.97,1.576
		C249.707,263.329,250.033,262.805,250.358,262.281z"/>
	<path style="fill:#B4002B;" d="M252.91,258.327c-0.345,0.516-0.686,1.035-1.024,1.555
		C252.224,259.361,252.565,258.843,252.91,258.327z"/>
	<path style="fill:#B4002B;" d="M247.907,266.373c-0.294,0.508-0.59,1.015-0.876,1.527
		C247.317,267.388,247.613,266.881,247.907,266.373z"/>
	<path style="fill:#B4002B;" d="M270.532,236.876c0.478-0.478,0.965-0.953,1.45-1.424
		C271.497,235.924,271.01,236.397,270.532,236.876z"/>
	<path style="fill:#B4002B;" d="M245.51,270.702c-0.234,0.439-0.474,0.873-0.702,1.316
		C245.034,271.577,245.276,271.141,245.51,270.702z"/>
	<path style="fill:#B4002B;" d="M265.236,242.476c-0.341,0.379-0.687,0.752-1.024,1.133
		C264.55,243.228,264.895,242.855,265.236,242.476z"/>
	<path style="fill:#B4002B;" d="M331.933,200.737c-0.992,0.283-1.982,0.567-2.966,0.87
		C329.952,201.305,330.941,201.019,331.933,200.737z"/>
	<path style="fill:#B4002B;" d="M261.23,247.115c-0.16,0.195-0.314,0.397-0.474,0.593
		C260.914,247.513,261.068,247.31,261.23,247.115z"/>
	<path style="fill:#B4002B;" d="M258.344,250.75c-0.326,0.423-0.64,0.854-0.961,1.281
		C257.704,251.605,258.018,251.173,258.344,250.75z"/>
	<path style="fill:#B4002B;" d="M350.315,196.815v-0.003c-1.195,0.172-2.382,0.372-3.566,0.574
		C347.933,197.184,349.12,196.986,350.315,196.815z"/>
	<path style="fill:#B4002B;" d="M365.38,195.458c-5.094,0.183-10.121,0.644-15.066,1.354v0.003
		C355.261,196.104,360.286,195.644,365.38,195.458z"/>
	<path style="fill:#B4002B;" d="M233.525,301.534c0.442-1.718,0.914-3.425,1.42-5.117
		C234.439,298.109,233.967,299.816,233.525,301.534z"/>
	<path style="fill:#B4002B;" d="M238.578,387.867c0.627,1.616,1.283,3.218,1.967,4.802
		C239.861,391.084,239.204,389.482,238.578,387.867z"/>
	<path style="fill:#B4002B;" d="M240.591,392.778c0.683,1.579,1.392,3.142,2.129,4.69l0,0
		C241.984,395.92,241.274,394.357,240.591,392.778z"/>
	<path style="fill:#B4002B;" d="M230.502,357.047L230.502,357.047c1.536,10.694,4.268,21.003,8.064,30.79
		C234.773,378.051,232.039,367.741,230.502,357.047z"/>
</g>
<path style="fill:#D7143A;" d="M390.736,196.815L390.736,196.815c-1.201-0.172-2.41-0.314-3.622-0.455
	C388.326,196.501,389.536,196.643,390.736,196.815z"/>
<path style="fill:#FF3F62;" d="M431.157,209.034c-6.482-3.088-13.234-5.693-20.211-7.776c-6.551-1.958-13.301-3.449-20.211-4.444
	l0,0c-1.201-0.172-2.41-0.313-3.622-0.455c-5.445-0.641-10.976-0.994-16.59-0.994c-1.722,0-3.437,0.032-5.144,0.094
	c-5.094,0.186-10.12,0.645-15.066,1.357c-1.195,0.171-2.382,0.369-3.566,0.571c-0.357,0.061-0.715,0.115-1.073,0.178
	c-1.082,0.193-2.157,0.407-3.23,0.624c-0.476,0.096-0.951,0.189-1.426,0.29c-1.027,0.218-2.048,0.451-3.063,0.693
	c-0.511,0.12-1.019,0.243-1.525,0.368c-0.998,0.248-1.993,0.505-2.986,0.775c-0.505,0.139-1.011,0.282-1.513,0.424
	c-0.992,0.282-1.982,0.567-2.966,0.87c-0.469,0.144-0.934,0.299-1.403,0.447c-1.013,0.323-2.028,0.649-3.032,0.994
	c-0.314,0.109-0.624,0.226-0.936,0.337c-3.468,1.222-6.872,2.58-10.21,4.06c-0.458,0.202-0.919,0.399-1.374,0.606
	c-0.861,0.392-1.711,0.802-2.56,1.21c-0.55,0.264-1.101,0.527-1.648,0.798c-0.806,0.4-1.603,0.812-2.4,1.227
	c-0.582,0.303-1.16,0.608-1.737,0.918c-0.768,0.414-1.532,0.834-2.289,1.261c-0.593,0.334-1.184,0.674-1.772,1.016
	c-0.734,0.427-1.467,0.857-2.194,1.296c-0.605,0.366-1.206,0.745-1.805,1.121c-0.701,0.439-1.4,0.874-2.092,1.324
	c-0.631,0.411-1.25,0.837-1.874,1.257c-0.648,0.437-1.302,0.866-1.942,1.314c-1.199,0.838-2.385,1.692-3.556,2.565
	c-0.536,0.399-1.06,0.815-1.59,1.222c-0.697,0.534-1.395,1.066-2.079,1.613c-0.555,0.442-1.098,0.896-1.646,1.346
	c-0.649,0.534-1.299,1.068-1.939,1.614c-0.539,0.459-1.073,0.928-1.603,1.396c-0.636,0.558-1.267,1.118-1.892,1.688
	c-0.516,0.47-1.029,0.946-1.54,1.423c-0.629,0.59-1.253,1.188-1.873,1.791c-0.485,0.472-0.971,0.946-1.45,1.424
	c-0.643,0.643-1.273,1.293-1.902,1.947c-0.438,0.455-0.88,0.908-1.314,1.37c-0.703,0.752-1.393,1.516-2.08,2.282
	c-0.341,0.379-0.687,0.752-1.024,1.133c-1.012,1.153-2.008,2.32-2.983,3.506c-0.16,0.195-0.314,0.397-0.474,0.593
	c-0.815,1.004-1.622,2.016-2.412,3.041c-0.326,0.423-0.64,0.854-0.961,1.281c-0.61,0.814-1.219,1.629-1.814,2.455
	c-0.35,0.488-0.693,0.981-1.037,1.473c-0.547,0.784-1.091,1.571-1.624,2.366c-0.345,0.516-0.686,1.035-1.024,1.555
	c-0.517,0.794-1.027,1.594-1.528,2.4c-0.325,0.524-0.651,1.048-0.97,1.576c-0.504,0.833-0.994,1.672-1.482,2.516
	c-0.294,0.508-0.59,1.015-0.876,1.527c-0.521,0.927-1.024,1.865-1.521,2.803c-0.234,0.439-0.476,0.873-0.702,1.316
	c-0.717,1.382-1.416,2.777-2.087,4.188c-3.087,6.482-5.691,13.234-7.776,20.211c-0.507,1.692-0.978,3.398-1.42,5.117
	c-1.273,4.933-2.286,9.969-3.023,15.093c-0.949,6.603-1.45,13.35-1.45,20.211c0,6.861,0.501,13.607,1.45,20.209
	c1.537,10.694,4.271,21.004,8.064,30.79c0.004,0.009,0.008,0.02,0.012,0.03c0.627,1.615,1.283,3.217,1.967,4.802
	c0.015,0.036,0.031,0.073,0.046,0.108c0.683,1.579,1.392,3.142,2.129,4.69c22.746,47.756,71.482,80.843,127.805,80.843
	c78.009,0,141.474-63.465,141.474-141.474C511.999,280.515,478.912,231.781,431.157,209.034z"/>
<g>
	<path id="SVGCleanerId_0_1_" style="fill:#830018;" d="M309.894,336.838c0,11.162,9.049,20.211,20.211,20.211h40.421h40.421
		c11.162,0,20.211-9.049,20.211-20.211s-9.049-20.211-20.211-20.211h-40.421h-40.421
		C318.943,316.627,309.894,325.676,309.894,336.838z"/>
</g>
<g>
	<path id="SVGCleanerId_1_1_" style="fill:#FF0C38;" d="M330.105,357.048c-11.162,0-20.211-9.049-20.211-20.211
		s9.049-20.211,20.211-20.211h40.421V195.364c-1.722,0-3.437,0.032-5.144,0.094c-5.094,0.186-10.12,0.645-15.066,1.357
		c-1.195,0.171-2.382,0.369-3.566,0.571c-0.357,0.061-0.715,0.115-1.073,0.178c-1.082,0.193-2.156,0.407-3.23,0.624
		c-0.476,0.096-0.951,0.189-1.426,0.29c-1.027,0.218-2.048,0.451-3.063,0.693c-0.511,0.12-1.019,0.243-1.525,0.368
		c-0.998,0.248-1.994,0.507-2.986,0.775c-0.505,0.139-1.011,0.282-1.513,0.424c-0.992,0.282-1.982,0.567-2.966,0.87
		c-0.469,0.144-0.934,0.299-1.403,0.447c-1.013,0.323-2.028,0.649-3.032,0.994c-0.314,0.109-0.624,0.226-0.936,0.337
		c-3.468,1.222-6.872,2.58-10.21,4.06c-0.458,0.202-0.919,0.399-1.374,0.606c-0.861,0.392-1.711,0.802-2.56,1.21
		c-0.55,0.264-1.101,0.527-1.648,0.798c-0.806,0.4-1.603,0.812-2.4,1.227c-0.582,0.303-1.16,0.608-1.737,0.918
		c-0.768,0.414-1.532,0.834-2.289,1.261c-0.593,0.334-1.184,0.675-1.772,1.016c-0.734,0.427-1.467,0.857-2.194,1.296
		c-0.605,0.366-1.206,0.745-1.805,1.121c-0.701,0.439-1.4,0.874-2.092,1.324c-0.631,0.411-1.25,0.837-1.874,1.257
		c-0.648,0.437-1.302,0.866-1.942,1.314c-1.199,0.838-2.385,1.692-3.556,2.565c-0.536,0.399-1.06,0.815-1.59,1.222
		c-0.697,0.534-1.395,1.066-2.079,1.613c-0.555,0.442-1.098,0.896-1.646,1.346c-0.649,0.534-1.299,1.068-1.939,1.614
		c-0.539,0.459-1.073,0.928-1.605,1.396c-0.636,0.558-1.267,1.118-1.892,1.688c-0.516,0.47-1.029,0.946-1.54,1.423
		c-0.629,0.591-1.253,1.188-1.873,1.791c-0.485,0.472-0.971,0.946-1.45,1.424c-0.643,0.643-1.273,1.293-1.902,1.947
		c-0.438,0.455-0.88,0.908-1.314,1.37c-0.703,0.752-1.393,1.516-2.08,2.282c-0.341,0.379-0.687,0.752-1.024,1.133
		c-1.012,1.152-2.008,2.32-2.983,3.506c-0.16,0.195-0.314,0.397-0.474,0.593c-0.815,1.004-1.622,2.016-2.412,3.041
		c-0.326,0.423-0.64,0.854-0.961,1.281c-0.61,0.814-1.219,1.629-1.814,2.455c-0.35,0.488-0.693,0.981-1.037,1.473
		c-0.547,0.784-1.091,1.571-1.624,2.366c-0.345,0.516-0.686,1.035-1.024,1.555c-0.517,0.794-1.027,1.594-1.528,2.4
		c-0.325,0.524-0.651,1.048-0.97,1.576c-0.504,0.833-0.994,1.672-1.482,2.516c-0.294,0.508-0.59,1.015-0.876,1.527
		c-0.521,0.927-1.024,1.865-1.521,2.803c-0.234,0.439-0.474,0.873-0.702,1.316c-0.717,1.382-1.416,2.777-2.087,4.188
		c-3.087,6.482-5.691,13.234-7.776,20.211c-0.507,1.692-0.978,3.399-1.42,5.117c-1.273,4.933-2.286,9.969-3.023,15.093
		c-0.949,6.603-1.45,13.35-1.45,20.211c0,6.861,0.501,13.607,1.45,20.209l0,0c1.537,10.694,4.271,21.004,8.064,30.79
		c0.004,0.009,0.008,0.02,0.012,0.031c0.627,1.615,1.283,3.217,1.967,4.802c0.015,0.036,0.031,0.073,0.046,0.108
		c0.683,1.579,1.392,3.142,2.129,4.69l0,0c22.746,47.756,71.482,80.843,127.805,80.843V357.046h-40.416V357.048z"/>
</g>
<g>
</g>
<g>
</g>
<g>
</g>
<g>
</g>
<g>
</g>
<g>
</g>
<g>
</g>
<g>
</g>
<g>
</g>
<g>
</g>
<g>
</g>
<g>
</g>
<g>
</g>
<g>
</g>
<g>
</g>
</svg>
